<svg width="1080" height="1080" viewBox="0 0 1080 1080" fill="none" xmlns="http://www.w3.org/2000/svg">
<rect width="1080" height="1080" fill="white"/>
<path d="M854.438 540H733.5V443.25C733.5 389.886 776.886 346.5 830.25 346.5H842.344C862.45 346.5 878.625 330.325 878.625 310.219V237.656C878.625 217.55 862.45 201.375 842.344 201.375H830.25C696.614 201.375 588.375 309.614 588.375 443.25V806.062C588.375 846.123 620.877 878.625 660.938 878.625H854.438C894.498 878.625 927 846.123 927 806.062V612.562C927 572.502 894.498 540 854.438 540ZM419.062 540H298.125V443.25C298.125 389.886 341.511 346.5 394.875 346.5H406.969C427.075 346.5 443.25 330.325 443.25 310.219V237.656C443.25 217.55 427.075 201.375 406.969 201.375H394.875C261.239 201.375 153 309.614 153 443.25V806.062C153 846.123 185.502 878.625 225.562 878.625H419.062C459.123 878.625 491.625 846.123 491.625 806.062V612.562C491.625 572.502 459.123 540 419.062 540Z" fill="black"/>
</svg>
